# xmcd
# 
# Track frame offsets:
#     150
#     4468
#     23950
#     46384
#     67167
#     90650
#     108802
#     123955
#     135097
#     158254
#     186804
#     194800
# 
# Disc length: 2757
# 
# Revision: 1
# Processed by: cddbd v1.5.2PL0 Copyright (c) Steve Scherf et al.
# Submitted via: fre:ac v1.0.27
# 
DISCID=990ac30c
DTITLE=NorthernBlues Gospel Allstars - SAVED!
DYEAR=2002
DGENRE=Gospel
TTITLE0=Down by the Riverside
TTITLE1=Still Standing Tall
TTITLE2=A Place Called Hope
TTITLE3=24/7/365
TTITLE4=The Promise
TTITLE5=Righteneous Highway
TTITLE6=People Get Ready
TTITLE7=Higher Ground
TTITLE8=A Change is Gonna Come
TTITLE9=Saved
TTITLE10=Down by the Riverside
TTITLE11=We Shall Overcome
EXTD=YEAR: 2002
EXTT0=
EXTT1=
EXTT2=
EXTT3=
EXTT4=
EXTT5=
EXTT6=
EXTT7=
EXTT8=
EXTT9=
EXTT10=
EXTT11=
PLAYORDER=
